<!--?xml version="1.0" standalone="no"?-->
              <svg id="sw-js-blob-svg" viewBox="0 0 100 100" xmlns="http://www.w3.org/2000/svg" version="1.1">
                    <defs> 
                        <linearGradient id="sw-gradient" x1="0" x2="1" y1="1" y2="0">
                            <stop id="stop1" stop-color="rgba(0, 0, 0, 1)" offset="0%"></stop>
                            <stop id="stop2" stop-color="rgba(0, 0, 0, 1)" offset="100%"></stop>
                        </linearGradient>
                    </defs>
                <path fill="url(#sw-gradient)" d="M24.1,-27.9C32,-22.1,39.8,-15.2,42.2,-6.7C44.6,1.9,41.8,12.2,36.2,20.1C30.7,28.1,22.5,33.7,13.3,37.6C4,41.4,-6.3,43.5,-13.5,39.8C-20.8,36,-24.9,26.4,-29.5,17.5C-34.1,8.6,-39,0.4,-38.1,-7.1C-37.2,-14.6,-30.4,-21.3,-23.1,-27.3C-15.7,-33.3,-7.9,-38.4,0.1,-38.5C8.1,-38.6,16.2,-33.8,24.1,-27.9Z" width="100%" height="100%" transform="translate(50 50)" stroke-width="0" style="transition: all 0.3s ease 0s;" stroke="url(#sw-gradient)"></path>
              </svg>